<svg xmlns="http://www.w3.org/2000/svg" width="900" height="550" viewBox="0 0 900 550"><rect width="100%" height="100%" fill="white"/><text x="450.0" y="28.0" font-family="Arial, sans-serif" font-size="22" font-weight="bold" text-anchor="middle" fill="#222">One-Pass vs Two-Pass Output Enrichment</text><line x1="80" y1="460" x2="860" y2="460" stroke="#333" stroke-width="1.5"/><line x1="80" y1="60" x2="80" y2="460" stroke="#333" stroke-width="1.5"/><text x="24.0" y="275.0" font-family="Arial, sans-serif" font-size="14" font-weight="normal" text-anchor="middle" fill="#222">Count</text><line x1="80" y1="460.0" x2="860" y2="460.0" stroke="#e0e0e0" stroke-width="1"/><text x="70.0" y="465.0" font-family="Arial, sans-serif" font-size="12" font-weight="normal" text-anchor="end" fill="#222">0</text><line x1="80" y1="380.0" x2="860" y2="380.0" stroke="#e0e0e0" stroke-width="1"/><text x="70.0" y="385.0" font-family="Arial, sans-serif" font-size="12" font-weight="normal" text-anchor="end" fill="#222">20</text><line x1="80" y1="300.0" x2="860" y2="300.0" stroke="#e0e0e0" stroke-width="1"/><text x="70.0" y="305.0" font-family="Arial, sans-serif" font-size="12" font-weight="normal" text-anchor="end" fill="#222">40</text><line x1="80" y1="220.0" x2="860" y2="220.0" stroke="#e0e0e0" stroke-width="1"/><text x="70.0" y="225.0" font-family="Arial, sans-serif" font-size="12" font-weight="normal" text-anchor="end" fill="#222">59</text><line x1="80" y1="140.0" x2="860" y2="140.0" stroke="#e0e0e0" stroke-width="1"/><text x="70.0" y="145.0" font-family="Arial, sans-serif" font-size="12" font-weight="normal" text-anchor="end" fill="#222">79</text><line x1="80" y1="60.0" x2="860" y2="60.0" stroke="#e0e0e0" stroke-width="1"/><text x="70.0" y="65.0" font-family="Arial, sans-serif" font-size="12" font-weight="normal" text-anchor="end" fill="#222">99</text><rect x="132.0" y="112.2" width="67.6" height="347.8" fill="#9ecae1"/><text x="165.8" y="104.2" font-family="Arial, sans-serif" font-size="12" font-weight="normal" text-anchor="middle" fill="#222">86</text><rect x="211.6" y="144.5" width="67.6" height="315.5" fill="#3182bd"/><text x="245.4" y="136.5" font-family="Arial, sans-serif" font-size="12" font-weight="normal" text-anchor="middle" fill="#222">78</text><text x="205.6" y="484.0" font-family="Arial, sans-serif" font-size="12" font-weight="normal" text-anchor="middle" fill="#222">Records Extracted</text><rect x="392.0" y="460.0" width="67.6" height="0.0" fill="#9ecae1"/><text x="425.8" y="452.0" font-family="Arial, sans-serif" font-size="12" font-weight="normal" text-anchor="middle" fill="#222">0</text><rect x="471.6" y="395.3" width="67.6" height="64.7" fill="#3182bd"/><text x="505.4" y="387.3" font-family="Arial, sans-serif" font-size="12" font-weight="normal" text-anchor="middle" fill="#222">16</text><text x="465.6" y="484.0" font-family="Arial, sans-serif" font-size="12" font-weight="normal" text-anchor="middle" fill="#222">Judged Records</text><rect x="652.0" y="460.0" width="67.6" height="0.0" fill="#9ecae1"/><text x="685.8" y="452.0" font-family="Arial, sans-serif" font-size="12" font-weight="normal" text-anchor="middle" fill="#222">0</text><rect x="731.6" y="460.0" width="67.6" height="0.0" fill="#3182bd"/><text x="765.4" y="452.0" font-family="Arial, sans-serif" font-size="12" font-weight="normal" text-anchor="middle" fill="#222">0</text><text x="725.6" y="484.0" font-family="Arial, sans-serif" font-size="12" font-weight="normal" text-anchor="middle" fill="#222">Comparable Groups</text><rect x="670" y="60" width="12" height="12" fill="#9ecae1"/><text x="688.0" y="70.0" font-family="Arial, sans-serif" font-size="12" font-weight="normal" text-anchor="start" fill="#222">Extraction only</text><rect x="670" y="82" width="12" height="12" fill="#3182bd"/><text x="688.0" y="92.0" font-family="Arial, sans-serif" font-size="12" font-weight="normal" text-anchor="start" fill="#222">Two pass</text></svg>