<svg xmlns="http://www.w3.org/2000/svg" width="900" height="550" viewBox="0 0 900 550"><rect width="100%" height="100%" fill="white"/><text x="450.0" y="28.0" font-family="Arial, sans-serif" font-size="22" font-weight="bold" text-anchor="middle" fill="#222">Selective Reasoning Funnel</text><line x1="80" y1="470" x2="860" y2="470" stroke="#333" stroke-width="1.5"/><line x1="80" y1="60" x2="80" y2="470" stroke="#333" stroke-width="1.5"/><text x="24.0" y="275.0" font-family="Arial, sans-serif" font-size="14" font-weight="normal" text-anchor="middle" fill="#222">Count</text><line x1="80" y1="470.0" x2="860" y2="470.0" stroke="#e0e0e0" stroke-width="1"/><text x="70.0" y="475.0" font-family="Arial, sans-serif" font-size="12" font-weight="normal" text-anchor="end" fill="#222">0</text><line x1="80" y1="388.0" x2="860" y2="388.0" stroke="#e0e0e0" stroke-width="1"/><text x="70.0" y="393.0" font-family="Arial, sans-serif" font-size="12" font-weight="normal" text-anchor="end" fill="#222">18</text><line x1="80" y1="306.0" x2="860" y2="306.0" stroke="#e0e0e0" stroke-width="1"/><text x="70.0" y="311.0" font-family="Arial, sans-serif" font-size="12" font-weight="normal" text-anchor="end" fill="#222">36</text><line x1="80" y1="224.0" x2="860" y2="224.0" stroke="#e0e0e0" stroke-width="1"/><text x="70.0" y="229.0" font-family="Arial, sans-serif" font-size="12" font-weight="normal" text-anchor="end" fill="#222">54</text><line x1="80" y1="142.0" x2="860" y2="142.0" stroke="#e0e0e0" stroke-width="1"/><text x="70.0" y="147.0" font-family="Arial, sans-serif" font-size="12" font-weight="normal" text-anchor="end" fill="#222">72</text><line x1="80" y1="60.0" x2="860" y2="60.0" stroke="#e0e0e0" stroke-width="1"/><text x="70.0" y="65.0" font-family="Arial, sans-serif" font-size="12" font-weight="normal" text-anchor="end" fill="#222">90</text><rect x="107.3" y="287.2" width="101.4" height="182.8" fill="#1f77b4"/><text x="158.0" y="279.2" font-family="Arial, sans-serif" font-size="12" font-weight="normal" text-anchor="middle" fill="#222">40</text><text x="158.0" y="494.0" font-family="Arial, sans-serif" font-size="12" font-weight="normal" text-anchor="middle" fill="#222">Papers</text><rect x="263.3" y="113.5" width="101.4" height="356.5" fill="#4c78a8"/><text x="314.0" y="105.5" font-family="Arial, sans-serif" font-size="12" font-weight="normal" text-anchor="middle" fill="#222">78</text><text x="314.0" y="494.0" font-family="Arial, sans-serif" font-size="12" font-weight="normal" text-anchor="middle" fill="#222">Records</text><rect x="419.3" y="406.0" width="101.4" height="64.0" fill="#f58518"/><text x="470.0" y="398.0" font-family="Arial, sans-serif" font-size="12" font-weight="normal" text-anchor="middle" fill="#222">14</text><text x="470.0" y="494.0" font-family="Arial, sans-serif" font-size="12" font-weight="normal" text-anchor="middle" fill="#222">Ambiguities</text><rect x="575.3" y="406.0" width="101.4" height="64.0" fill="#e45756"/><text x="626.0" y="398.0" font-family="Arial, sans-serif" font-size="12" font-weight="normal" text-anchor="middle" fill="#222">14</text><text x="626.0" y="494.0" font-family="Arial, sans-serif" font-size="12" font-weight="normal" text-anchor="middle" fill="#222">Adjudications</text><rect x="731.3" y="470.0" width="101.4" height="0.0" fill="#72b7b2"/><text x="782.0" y="462.0" font-family="Arial, sans-serif" font-size="12" font-weight="normal" text-anchor="middle" fill="#222">0</text><text x="782.0" y="494.0" font-family="Arial, sans-serif" font-size="12" font-weight="normal" text-anchor="middle" fill="#222">Comparable Groups</text></svg>