<svg xmlns="http://www.w3.org/2000/svg" width="900" height="550" viewBox="0 0 900 550"><rect width="100%" height="100%" fill="white"/><text x="450.0" y="28.0" font-family="Arial, sans-serif" font-size="22" font-weight="bold" text-anchor="middle" fill="#222">Throughput vs Worker Count</text><line x1="80" y1="470" x2="860" y2="470" stroke="#333" stroke-width="1.5"/><line x1="80" y1="60" x2="80" y2="470" stroke="#333" stroke-width="1.5"/><text x="24.0" y="275.0" font-family="Arial, sans-serif" font-size="14" font-weight="normal" text-anchor="middle" fill="#222">Queue tasks / min</text><line x1="80" y1="470.0" x2="860" y2="470.0" stroke="#e0e0e0" stroke-width="1"/><text x="70.0" y="475.0" font-family="Arial, sans-serif" font-size="12" font-weight="normal" text-anchor="end" fill="#222">0</text><line x1="80" y1="388.0" x2="860" y2="388.0" stroke="#e0e0e0" stroke-width="1"/><text x="70.0" y="393.0" font-family="Arial, sans-serif" font-size="12" font-weight="normal" text-anchor="end" fill="#222">426</text><line x1="80" y1="306.0" x2="860" y2="306.0" stroke="#e0e0e0" stroke-width="1"/><text x="70.0" y="311.0" font-family="Arial, sans-serif" font-size="12" font-weight="normal" text-anchor="end" fill="#222">851</text><line x1="80" y1="224.0" x2="860" y2="224.0" stroke="#e0e0e0" stroke-width="1"/><text x="70.0" y="229.0" font-family="Arial, sans-serif" font-size="12" font-weight="normal" text-anchor="end" fill="#222">1277</text><line x1="80" y1="142.0" x2="860" y2="142.0" stroke="#e0e0e0" stroke-width="1"/><text x="70.0" y="147.0" font-family="Arial, sans-serif" font-size="12" font-weight="normal" text-anchor="end" fill="#222">1703</text><line x1="80" y1="60.0" x2="860" y2="60.0" stroke="#e0e0e0" stroke-width="1"/><text x="70.0" y="65.0" font-family="Arial, sans-serif" font-size="12" font-weight="normal" text-anchor="end" fill="#222">2129</text><line x1="80.0" y1="470" x2="80.0" y2="476" stroke="#333" stroke-width="1"/><text x="80.0" y="494.0" font-family="Arial, sans-serif" font-size="12" font-weight="normal" text-anchor="middle" fill="#222">2</text><line x1="470.0" y1="470" x2="470.0" y2="476" stroke="#333" stroke-width="1"/><text x="470.0" y="494.0" font-family="Arial, sans-serif" font-size="12" font-weight="normal" text-anchor="middle" fill="#222">8</text><line x1="860.0" y1="470" x2="860.0" y2="476" stroke="#333" stroke-width="1"/><text x="860.0" y="494.0" font-family="Arial, sans-serif" font-size="12" font-weight="normal" text-anchor="middle" fill="#222">24</text><polyline points="80.0,433.6 470.0,344.7 860.0,193.9" fill="none" stroke="#1f77b4" stroke-width="3"/><circle cx="80.0" cy="433.6" r="4" fill="#1f77b4"/><circle cx="470.0" cy="344.7" r="4" fill="#1f77b4"/><circle cx="860.0" cy="193.9" r="4" fill="#1f77b4"/><polyline points="80.0,433.8 470.0,359.9 860.0,256.9" fill="none" stroke="#ff7f0e" stroke-width="3"/><circle cx="80.0" cy="433.8" r="4" fill="#ff7f0e"/><circle cx="470.0" cy="359.9" r="4" fill="#ff7f0e"/><circle cx="860.0" cy="256.9" r="4" fill="#ff7f0e"/><polyline points="80.0,432.5 470.0,330.7 860.0,113.5" fill="none" stroke="#2ca02c" stroke-width="3"/><circle cx="80.0" cy="432.5" r="4" fill="#2ca02c"/><circle cx="470.0" cy="330.7" r="4" fill="#2ca02c"/><circle cx="860.0" cy="113.5" r="4" fill="#2ca02c"/><rect x="680" y="60" width="12" height="12" fill="#1f77b4"/><text x="698.0" y="70.0" font-family="Arial, sans-serif" font-size="12" font-weight="normal" text-anchor="start" fill="#222">map_reduce</text><rect x="680" y="82" width="12" height="12" fill="#ff7f0e"/><text x="698.0" y="92.0" font-family="Arial, sans-serif" font-size="12" font-weight="normal" text-anchor="start" fill="#222">sharded_queue</text><rect x="680" y="104" width="12" height="12" fill="#2ca02c"/><text x="698.0" y="114.0" font-family="Arial, sans-serif" font-size="12" font-weight="normal" text-anchor="start" fill="#222">work_queue</text><text x="450.0" y="528.0" font-family="Arial, sans-serif" font-size="14" font-weight="normal" text-anchor="middle" fill="#222">Workers</text></svg>